<svg width="300" height="97" viewBox="0 0 300 97" fill="none" xmlns="http://www.w3.org/2000/svg">
<path fill-rule="evenodd" clip-rule="evenodd" d="M166.017 20.7799C177.348 20.7807 188.98 29.3964 188.98 46.9306C188.979 64.4634 177.348 73.0805 166.017 73.0812C162.22 73.0812 158.462 72.0867 155.169 70.1561C153.268 69.0427 150.372 70.2816 150.372 72.4924V94.5687C150.371 95.9112 149.288 97 147.952 97H139.954C138.619 96.9988 137.534 95.9104 137.534 94.5687V24.935C137.534 22.8065 139.342 20.9794 141.448 20.9794C142.55 20.9795 143.553 21.3853 144.355 22.195L148.117 26.1316C149.11 27.1708 150.773 27.1073 151.837 26.1411C155.774 22.5659 160.859 20.7799 166.017 20.7799ZM163.309 32.737C156.189 32.737 150.372 39.126 150.372 46.9306V47.0303C150.372 54.8347 156.189 61.1194 163.309 61.1194C170.328 61.1191 176.141 54.734 176.142 46.9306C176.142 39.1262 170.328 32.7373 163.309 32.737Z" fill="#FEEFD8"/>
<path fill-rule="evenodd" clip-rule="evenodd" d="M78.4449 20.9794C92.5844 20.9794 104.121 32.5361 104.121 47.0303V69.2253C104.121 71.3538 102.412 73.0812 100.306 73.0812C99.2036 73.0806 98.1007 72.4686 97.3991 71.5569L94.1944 67.4921C93.2226 66.2594 91.3578 66.2708 90.2192 67.3496C86.2355 71.1282 80.9705 73.0812 75.6372 73.0812C64.3065 73.0804 52.6756 64.4633 52.6748 46.9306C52.6748 32.5384 64.206 20.9804 78.4449 20.9794ZM78.4449 32.737C71.3259 32.7381 65.5126 39.1267 65.5126 46.9306C65.5135 54.7336 71.3265 61.1183 78.4449 61.1194C85.4645 61.1194 91.1823 54.8347 91.2828 47.0303V46.9306C91.2828 39.126 85.4645 32.737 78.4449 32.737Z" fill="#FEEFD8"/>
<path d="M235.302 9.12209C237.207 9.12209 238.714 10.6438 238.714 12.5696V18.9565C238.715 20.2987 239.798 21.3878 241.135 21.3878H248.83C250.165 21.3889 251.25 22.477 251.25 23.8191V30.8138C251.25 32.1559 250.165 33.244 248.83 33.2451H241.135C239.798 33.2451 238.715 34.3337 238.714 35.6764V52.7049C238.714 58.9777 240.829 61.3294 252.171 61.7653C253.493 61.816 254.558 62.8965 254.558 64.225V70.403C254.558 71.6802 253.573 72.7464 252.304 72.8153C250.28 72.9246 248.404 72.9767 246.636 72.9767C230.592 72.9767 225.777 68.0104 225.777 54.7326V35.6764C225.777 34.334 224.693 33.2455 223.357 33.2451H220.261C218.657 33.2451 217.354 31.9274 217.354 30.3057C217.354 29.597 217.554 28.9899 218.054 28.3825L232.797 10.3377C233.398 9.6289 234.3 9.12257 235.302 9.12209Z" fill="#FEEFD8"/>
<path d="M124.157 0C125.493 0.00122199 126.577 1.08928 126.577 2.43129V70.2415C126.577 71.5836 125.493 72.6716 124.157 72.6728H116.16C114.823 72.6728 113.739 71.5843 113.739 70.2415V2.43129C113.739 1.08853 114.823 0 116.16 0H124.157Z" fill="#FEEFD8"/>
<path d="M207.981 21.3878C209.318 21.3878 210.401 22.4763 210.401 23.8191V70.2415C210.401 71.5843 209.318 72.6728 207.981 72.6728H199.988C198.652 72.6728 197.568 71.5843 197.568 70.2415V23.8191C197.568 22.4763 198.652 21.3878 199.988 21.3878H207.981Z" fill="#FEEFD8"/>
<path fill-rule="evenodd" clip-rule="evenodd" d="M279.733 20.2766C292.188 19.3622 299.231 26.0476 299.231 35.2015C299.23 40.6016 297.854 44.9046 290.983 48.1082L274.085 55.7583C272.753 56.3628 272.237 58.0358 273.272 59.0728C275.075 60.8799 277.329 61.8412 279.818 61.8412C284.083 61.8409 287.56 60.2179 288.553 56.3756C288.889 55.0759 289.92 53.9681 291.257 53.968H297.671C299.007 53.9683 300.106 55.0617 299.992 56.3993C299.08 67.067 292.012 72.5487 280.248 72.5494C266.332 72.5494 257.825 61.4733 257.825 46.4605C257.825 28.7007 269.252 21.1005 279.733 20.2766ZM280.674 30.6238C275.262 30.6249 269.079 35.0187 269.079 46.4605C269.08 47.502 270.13 48.1224 271.074 47.6904L285.145 41.2417C286.948 40.418 288.407 39.4993 288.407 37.1199C288.406 33.1845 284.797 30.6238 280.674 30.6238Z" fill="#FEEFD8"/>
<path fill-rule="evenodd" clip-rule="evenodd" d="M28.9135 0C44.9195 0 52.6653 8.26488 52.6653 22.9786C52.6643 50.7918 13.5291 41.4206 13.5279 62.9857V68.1142C13.5277 69.4567 12.4442 70.5453 11.1078 70.5455H2.42009C1.08365 70.5455 0.000219445 69.4567 0 68.1142V2.43129C1.13959e-06 1.08853 1.08351 0 2.42009 0H28.9135ZM15.948 12.5981C14.6114 12.5981 13.5279 13.6866 13.5279 15.0294V36.8398C13.5294 38.9483 16.1374 40.1826 17.9474 39.1144C27.1478 33.6847 38.6214 32.7138 38.6222 22.9786C38.6222 13.1034 32.3233 12.5982 27.883 12.5981H15.948Z" fill="#FEEFD8"/>
<path d="M204.086 2.02766C206.693 2.02801 209.101 3.54933 210.103 6.08298C211.506 9.42742 209.9 13.3795 206.592 14.697C205.79 15.0007 204.888 15.2049 204.086 15.2051C201.58 15.2051 199.172 13.6834 198.069 11.1498C196.666 7.80573 198.269 3.95558 201.576 2.53576C202.379 2.23169 203.284 2.02766 204.086 2.02766Z" fill="#FEEFD8"/>
</svg>
